<svg xmlns="http://www.w3.org/2000/svg" version="1.1" xmlns:xlink="http://www.w3.org/1999/xlink" xmlns:svgjs="http://svgjs.com/svgjs" width="1920" height="1080" preserveAspectRatio="none" viewBox="0 0 1920 1080">
    <g mask="url(&quot;#SvgjsMask1033&quot;)" fill="none">
        <rect width="1920" height="1080" x="0" y="0" fill="#0e2a47"></rect>
        <path d="M386.88 852.18L425.9 852.18L425.9 891.2L386.88 891.2z" stroke="#037b0b"></path>
        <path d="M173.34 691.22 a19.89 19.89 0 1 0 39.78 0 a19.89 19.89 0 1 0 -39.78 0z" fill="#e73635"></path>
        <path d="M1282.52 47.66L1374.98 47.66L1374.98 152.5L1282.52 152.5z" fill="#e73635"></path>
        <path d="M1347.99 679.78L1408.7 679.78L1408.7 740.49L1347.99 740.49z" stroke="#e73635"></path>
        <path d="M265.97 1077.68 a5.2 5.2 0 1 0 10.4 0 a5.2 5.2 0 1 0 -10.4 0z" fill="#e73635"></path>
        <path d="M178.05 967.13L236.27 967.13L236.27 1042.73L178.05 1042.73z" stroke="#e73635"></path>
        <path d="M362.39 510.03L436.69 510.03L436.69 555.94L362.39 555.94z" stroke="#037b0b"></path>
        <path d="M57.18 830.9L92.52 830.9L92.52 846.21L57.18 846.21z" stroke="#037b0b"></path>
        <path d="M928.05 982.44L939.46 982.44L939.46 993.85L928.05 993.85z" fill="#d3b714"></path>
        <path d="M1304.16 731.97a106.36 106.36 0 1 0 90.62-192.45z" stroke="#e73635"></path>
        <path d="M774.38 1035.75a13.16 13.16 0 1 0 6.42-25.52z" stroke="#e73635"></path>
        <path d="M734.56 456.8a80.22 80.22 0 1 0-125.91-99.43z" stroke="#037b0b"></path>
        <path d="M1462.97 63.39a37.89 37.89 0 1 0-5.02-75.61z" stroke="#d3b714"></path>
        <path d="M531.52 312.73L535.28 312.73L535.28 344.39L531.52 344.39z" fill="#037b0b"></path>
        <path d="M1242.49 829.26a23.77 23.77 0 1 0-44.15-17.63z" stroke="#d3b714"></path>
        <path d="M310.38 394.51a57.04 57.04 0 1 0-80.99-80.34z" fill="#037b0b"></path>
        <path d="M1767.04 589.36a95.29 95.29 0 1 0-89.9 168.05z" fill="#d3b714"></path>
        <path d="M1471.43 899.28 a33.29 33.29 0 1 0 66.58 0 a33.29 33.29 0 1 0 -66.58 0z" fill="#037b0b"></path>
        <path d="M453.13 304.62L492.56 304.62L492.56 344.05L453.13 344.05z" fill="#e73635"></path>
        <path d="M1650.72 106.37 a44.94 44.94 0 1 0 89.88 0 a44.94 44.94 0 1 0 -89.88 0z" stroke="#d3b714"></path>
        <path d="M349.53 410.58 a26.88 26.88 0 1 0 53.76 0 a26.88 26.88 0 1 0 -53.76 0z" fill="#d3b714"></path>
        <path d="M447.45 366.95 a35.98 35.98 0 1 0 71.96 0 a35.98 35.98 0 1 0 -71.96 0z" stroke="#d3b714"></path>
        <path d="M1892.68 695.15 a18.82 18.82 0 1 0 37.64 0 a18.82 18.82 0 1 0 -37.64 0z" fill="#d3b714"></path>
    </g>
    <defs>
        <mask id="SvgjsMask1033">
            <rect width="1920" height="1080" fill="#ffffff"></rect>
        </mask>
    </defs>
</svg>